<?xml version="1.0" encoding="UTF-8"?>
<svg id="_레이어_2" data-name="레이어 2" xmlns="http://www.w3.org/2000/svg" viewBox="0 0 203.31 127.15">
  <defs>
    <style>
      .cls-1 {
        fill: #e5f2fc;
      }
    </style>
  </defs>
  <g id="_레이어_1-2" data-name="레이어 1">
    <polygon class="cls-1" points="203.31 59.61 202.67 50.54 181.04 31.41 167.12 28.28 159.99 9.24 138.62 0 116.91 18.46 112.37 31.19 118.7 48.12 107.17 62.43 104.13 88.36 103.21 68.48 86.64 43.66 98.74 23.43 79.1 4.07 57.27 4.66 44.29 14.75 42.54 32.18 30.19 32.2 2.9 53.92 0 63.16 6.75 69.67 9.58 102.7 27.12 119.04 64.84 127.15 86.19 104.41 89.57 93.63 104.21 90.11 104.13 88.39 117.65 92.29 120.4 103.32 141.25 125.91 183.54 117.33 200.22 95.58 198.58 64.48 203.31 59.61"/>
  </g>
</svg>