<?xml version="1.0" encoding="UTF-8"?>
<svg id="_레이어_2" data-name="레이어 2" xmlns="http://www.w3.org/2000/svg" viewBox="0 0 125.25 165.39">
  <defs>
    <style>
      .cls-1 {
        fill: #e5f2fc;
      }
    </style>
  </defs>
  <g id="_레이어_1-2" data-name="레이어 1">
    <g>
      <path class="cls-1" d="m67.59,86.14l-24.73-18L17.36,28.95l-8.64,3.44v10.9l-.78-.57-7.93,7,21.85,22.33c9.73,18.47,21.3,40.28,21.3,39.53l26.58,37.66,16.46,16.14,13.88-5.17-21.92-37.67,31.83,23.47h15.27v-15.06l-57.66-44.82Z"/>
      <polygon class="cls-1" points="22.7 23.14 33.47 10.01 29.38 10.01 26.36 17.11 23.46 6.78 24.43 1.4 23.24 0 20.44 2.47 22.7 17.97 22.7 23.14"/>
      <polygon class="cls-1" points="29.91 23.89 39.71 25.18 39.71 21.63 29.38 22.27 29.91 23.89"/>
      <polygon class="cls-1" points="17.11 14.2 16.36 10.11 14.96 11.57 15.6 16.79 17.11 14.2"/>
    </g>
  </g>
</svg>