<?xml version="1.0" encoding="UTF-8"?>
<svg id="_레이어_2" data-name="레이어 2" xmlns="http://www.w3.org/2000/svg" viewBox="0 0 273.2 203.59">
  <defs>
    <style>
      .cls-1 {
        fill: #e5f2fc;
      }
    </style>
  </defs>
  <g id="_레이어_1-2" data-name="레이어 1">
    <path class="cls-1" d="m220.72,125.62l-1.89.19-1.39-8.15,15.38-5.32,17.78,2.04,22.6,32.19-14.35-46.15,12.47-8.85-11.6-7.89,8.8-5.45-45.2,1.53-24.41-2.49-7.7,6.89-47.57-.77-23.26,20.15,2.63,3.59-18.15,4.85-27.22-23.23,10.17-8.94,9.9-23.23-6.05-5.36,7.15-7.91,12.28-2.81-2.38-5.87-8.25-.94-1.1-10.89,8.43-2.04,3.3-16-11.37-4.77-3.3,33.02-15.4,9.02-14.67,1.53,1.83-14.98-31.9,26.89-3.67,7.83-6.6,8.51-2.57,27.74,10.27,5.28,15.86,18.93-32.17,3.92L0,161.48l7.01,38.13,39.23,2.48,28.72-11.95,2.57-13.71,6.23,8.51,25.86,2.08,35.93-1.36,40.49-.55,28.96,18.48,35.37-3.5,13.96-38.69-11.73-28.63-31.9-7.15Zm-171.69,12.02l6.81,1.83-4.6,10.55-4.43-2.21,2.21-10.17Zm-9.46-2.85l2.4,8.74-.85,5.6-11.91,3.74-9.53-10.38,19.9-7.71Zm-24.24,16.22l11.57,6.64v5.79l3.92,10.38-19.23,7.49,3.74-30.3Zm5.87,40.51l2.47-5.79,7.15-6.3,19.32,1.19,1.19,6.64-30.13,4.26Zm36.17-2.55l-4.51-14.3,3.15-3.06,8-2.38,5.28,10.38-11.91,9.36Zm146.04-65.7l6.89-3.4,4.49,6.35-11.3,1.12-.08-4.06Zm24.85,69.79l-14.47-8.51,16.34-8.51-1.87,17.02Zm-2.04-40.85l-3.57-4.09-1.7-7.15,11.23,4.6-5.96,6.64Zm20.94,33.53l-9.19,5.28.85-24.17h13.79l-5.45,18.89Zm6.81-22.3l-9.7-1.53,6.81-9.7,2.89,1.36v9.87Z"/>
  </g>
</svg>