<?xml version="1.0" encoding="UTF-8"?>
<svg id="_레이어_2" data-name="레이어 2" xmlns="http://www.w3.org/2000/svg" viewBox="0 0 88.63 89.03">
  <defs>
    <style>
      .cls-1 {
        fill: #e5f2fc;
      }
    </style>
  </defs>
  <g id="_레이어_1-2" data-name="레이어 1">
    <g>
      <path class="cls-1" d="m57.44,61.39l-4.94-3.39,2.54-4.66,8.05-3.67,9.91,1.42-1.65-12.7-10.54-11.41-9.78-6.35-10.09,2.98-.69-.14.22-1.75,13.39-3.08,12.59-10.19-10.8-.99-13.51,8.51-1.25,2.34.96-7.78L37.01,0l-3.17,5.52,4.53,7.44v10.12l-12.28-2.53L5.82,29.91,0,65.73l16.94,23.3h35.78l22.23-22.87-1.28-9.88-9.03-.55-7.2,5.65Zm-13.52,3.9l-9.22,2.03-2.94-4.66,10.07-4.66,4.18,3.39-2.09,3.9Z"/>
      <polygon class="cls-1" points="88.63 47.42 88.07 43.18 85.25 41.91 76.92 51.65 72.99 51.09 73.67 56.29 78.65 56.59 88.63 47.42"/>
    </g>
  </g>
</svg>