<?xml version="1.0" encoding="UTF-8"?>
<svg id="_레이어_2" data-name="레이어 2" xmlns="http://www.w3.org/2000/svg" viewBox="0 0 121.78 109.84">
  <defs>
    <style>
      .cls-1 {
        fill: #7fc5e8;
      }
    </style>
  </defs>
  <g id="_레이어_1-2" data-name="레이어 1">
    <path class="cls-1" d="m23.49,69.7l-15.83,8.68h25.53l11.49,31.45,21.36-25.24,7.91,2.04,5.11,13.53v-21.96l10.21-10.33,27.15-4.81-29.49-8.01,7.66-13.35,27.18-19.74-39.31,11.71-11.65-4.58-.1-29.08-13.53,21.19-9.11,10.55L29.36,4.51l4.43,24.68-1.7,12.51L0,48.85l20.94,9.87,2.55,10.98Zm5-8.72l-15.83-10.13,17.87,1.36,24.34-21.45,13.96-19.91-1.02,24,14.81,2.89,18.72-7.15-22.06,16.72,1.29,12.9,14.78,3.81-13.08,4.19-6.98,10.89-14.4,2.21-9.6,8.85-5.93,9.07-10.58-23.03-15.59-1.46,8.41-4.61.89-9.16Z"/>
  </g>
</svg>