<?xml version="1.0" encoding="UTF-8"?>
<svg id="_레이어_2" data-name="레이어 2" xmlns="http://www.w3.org/2000/svg" viewBox="0 0 206.55 134.81">
  <defs>
    <style>
      .cls-1 {
        fill: #7fc5e8;
      }
    </style>
  </defs>
  <g id="_레이어_1-2" data-name="레이어 1">
    <g>
      <polygon class="cls-1" points="98.55 0 79.34 19.3 61.73 26.2 55.15 33.19 74.55 35.23 69.45 100.09 66.38 114.89 127.66 120.51 127.66 100.6 124.09 31.15 142.47 27.06 142.47 18.38 117.45 10.21 98.55 0"/>
      <polygon class="cls-1" points="167.74 74.04 157.02 97.53 167.74 100.6 167.74 122.04 204 122.04 191.23 92.43 206.55 90.89 202.98 86.81 181.79 78.13 169.79 66.38 167.74 74.04"/>
      <polygon class="cls-1" points="27.06 134.81 30.13 117.45 26.04 85.28 0 76.6 19.4 60.77 31.66 42.89 50.55 56.68 60.26 67.4 53.11 75.57 56.68 127.66 27.06 134.81"/>
    </g>
  </g>
</svg>