<?xml version="1.0" encoding="UTF-8"?>
<svg id="_레이어_2" data-name="레이어 2" xmlns="http://www.w3.org/2000/svg" viewBox="0 0 202.21 174.56">
  <defs>
    <style>
      .cls-1 {
        fill: #7fc5e8;
      }
    </style>
  </defs>
  <g id="_레이어_1-2" data-name="레이어 1">
    <polygon class="cls-1" points="197.07 140.06 145.91 142.48 127.14 143.39 123.58 132.1 140.76 132.79 160.44 125.83 157.11 97.98 147.42 98.58 146.22 88.39 149.74 88.39 178.8 88.39 177.19 62.76 134.81 56.51 110.59 59.33 103.73 69.02 96.99 69.02 97.68 64.98 88.39 51.26 68.62 49.64 68.62 36.66 97.68 29.87 94.85 12.92 75.48 0 38.34 0 0 6.86 5.65 27.85 54.49 39.96 64.81 37.55 63.37 50.05 33.64 57.31 15.74 57.31 15.74 82.74 50.86 88.39 94.04 86.37 96.41 72.45 105.34 72.45 107.77 88.39 142.28 88.39 142.28 98.89 107.16 101.61 83.25 100.4 74.77 119.47 80.22 130.37 120.64 131.99 121.89 144.09 117.6 154.59 119.87 174.56 186.47 171.54 202.21 167.6 202.21 149.59 197.07 140.06"/>
  </g>
</svg>