<?xml version="1.0" encoding="UTF-8"?>
<svg id="_레이어_2" data-name="레이어 2" xmlns="http://www.w3.org/2000/svg" viewBox="0 0 155.75 128.75">
  <defs>
    <style>
      .cls-1 {
        fill: #7fc5e8;
      }
    </style>
  </defs>
  <g id="_레이어_1-2" data-name="레이어 1">
    <g>
      <polygon class="cls-1" points="1.68 85.52 0 92.2 18.9 105.09 43.41 114.29 43.41 124.16 53.62 128.75 62.82 120.07 74.56 127.05 90.9 128.75 77.88 111.14 78.22 103.22 95.07 122.37 106.21 115.56 95.07 96.07 89.45 95.31 86.3 92.33 90.13 91.56 119.75 100.75 146.82 117.6 155.75 116.07 121.16 88.5 135.33 59.65 142.99 63.73 152.18 55.56 118.73 57.09 90.13 69.09 82.64 68.58 93.37 61.6 90.82 57.35 75.16 47.14 71.92 36.07 62.04 31.98 41.81 62.88 22.23 66.8 1.68 85.52"/>
      <polygon class="cls-1" points="96.26 31.98 90.64 31.98 88.77 36.57 92 41.51 97.79 39.98 96.26 31.98"/>
      <polygon class="cls-1" points="97.11 20.57 97.11 24.49 100.17 23.46 100.17 19.72 97.11 20.57"/>
      <polygon class="cls-1" points="99.32 2.36 100.17 0 101.36 1.18 100.34 2.36 99.32 2.36"/>
    </g>
  </g>
</svg>