<?xml version="1.0" encoding="UTF-8"?>
<svg id="_레이어_2" data-name="레이어 2" xmlns="http://www.w3.org/2000/svg" viewBox="0 0 160.98 171.15">
  <defs>
    <style>
      .cls-1 {
        fill: #acb88d;
      }
    </style>
  </defs>
  <g id="_레이어_1-2" data-name="레이어 1">
    <g>
      <polygon class="cls-1" points="42.95 2.43 38.62 10.13 37.78 16.07 39.37 20.88 32 26.65 14.34 26.65 10.51 40.29 12.59 51.2 23.18 51.2 28.33 59.38 23.18 67.08 17.41 67.08 10.67 61.78 9.38 77.02 9.38 88.09 42.14 91.63 37.78 81.84 37.3 74.46 48.53 69.81 51.73 79.91 51.09 92.58 76.6 94.19 76.28 68.52 89.75 70.93 98.42 62.27 94.57 48.79 83.02 48.79 75.8 53.6 78.68 35.8 89.27 30.5 60.4 25.53 54.62 22.64 58.35 15.3 57.82 7.59 51.33 0 42.95 2.43"/>
      <polygon class="cls-1" points="92.4 30.1 85.9 37.56 87.83 45.26 100.34 45.26 100.34 66.92 89.99 73.9 85.9 73.9 87.83 90.26 111.41 90.26 110.21 82.8 112.85 73.66 130.66 78.71 127.29 84.96 122.96 90.26 135.23 91.94 149.67 88.33 145.1 65.23 158.33 64.51 160.98 56.33 155.68 43.82 148.71 47.09 143.65 52.72 144.37 43.34 146.78 30.1 151.11 25.05 130.42 25.05 127.05 23.12 129.94 14.46 125.61 5.8 112.61 5.8 109 12.78 114.3 21.68 108.52 25.53 91.68 26.25 92.4 30.1"/>
      <path class="cls-1" d="m82.9,94.19l30.36-2.25v-9.18l5.94-5.77,5.94,4.33v4.27l-6.74,3.91,2.89,3.69,16.84,1.56,10.35,2.77-2.77,23.1-8.9-.72s-4.81,7.7-4.93,8.18,7.46,6.98,7.46,6.98l10.59-2.17v13.96l1.8,6.62-22.62,2.65-9.5-.6,8.78-8.06-4.93-11.43-10.35,1.68-5.05,5.17,5.65,12.15-1.68,1.92-13.6-1.68-12.51.6v-19.37l-1.8-13.72-13.23,3.37-1.2-16.84,8.66-.96,6.38,4.57-.48-11.43-1.32-7.3Z"/>
      <polygon class="cls-1" points="13.96 97.28 44.52 94.19 40.18 79.23 44.52 73.7 48.85 75.86 48.85 83.08 46.68 88.61 51.49 95.35 77.72 97.28 79.65 104.74 65.93 104.74 63.52 118.21 71.47 131.69 81.57 126.39 82.9 151.66 80.61 156.95 51.73 153.34 48.43 166.09 42.11 171.15 32.48 166.09 35.85 156.95 35.37 151.18 17.57 154.54 15.4 139.14 13.96 130.48 4.57 135.05 0 123.5 2.89 113.88 14.44 115.08 17.57 119.9 18.05 110.03 13.96 97.28"/>
    </g>
  </g>
</svg>