<?xml version="1.0" encoding="UTF-8"?>
<svg id="_레이어_2" data-name="레이어 2" xmlns="http://www.w3.org/2000/svg" viewBox="0 0 286.21 138.55">
  <defs>
    <style>
      .cls-1 {
        fill: #acb88d;
      }
    </style>
  </defs>
  <g id="_레이어_1-2" data-name="레이어 1">
    <g>
      <polygon class="cls-1" points="51.55 39.15 40.7 42.21 49.85 46.64 61.77 53.79 73 48.34 86.28 51.74 94.79 43.56 104.32 48.34 109.42 46.47 116.23 53.79 145.85 39.15 150.96 39.15 159.13 30.64 176.83 19.4 181.59 5.11 171.38 0 168.32 12.26 149.94 11.57 135.64 19.4 123.72 14.64 104.66 8.17 94.79 14.98 92.74 20.77 76.74 15.66 65.17 20.09 62.11 32.34 51.55 32.68 51.55 39.15"/>
      <path class="cls-1" d="m286.21,60.6l-55.4-4.34-46.72,3.32-6.64,39.57v8.17l-7.4,1.79-3.05.16.33-4.08,2.72-44.94-20.77.68-29.62-.68-10.89.68.68,39.49-.34,9.19-12.94.68-2.38-12.94v-37.45l-38.81,2.04-14.64.34,2.09-10.89-13.32-3.06-12.94,3.4-5.79,7.83,6.98,6.3-10.72,6.98-6.64,13.28v20.94l13.79,11.56-1.7,7.67-7.15,7.32,19.06,4.94,25.87-2.04,6.47-2.89,8.51,3.23,8.85-3.23,9.53,2.89,7.49-1.02,2.72-1.87,8.21,4.94,9.15-1.7,1.36-3.23,5.11,4.94h9.53l4.08-4.94,5.45,2.55,11.92-.34,1.36-2.21,6.47,2.21,4.43-1.02,4.43-4.43v-7.15l5.11-.34-3.22-8.68h6.28l5.87,1.53,2.62,9.19-5.68,1.02-.51,8.68,8.43,2.04,8.17-7.4,4.08,4.85,15.32-.26,5.11-5.87,1.53,2.3,4.34,8.26h6.13l7.4-6.47,2.04-4.09,3.57,3.06,5.36,2.3,7.92-5.36,6.38,4.6,12,4.09,4.85-2.55,3.32-6.13,4.85,2.3v-14.55l-4.08-36.26,4.08-18.89Zm-175.06,67.4l-12.6-4.43-2.04-7.83h14.64v12.26Z"/>
      <polygon class="cls-1" points="189.11 5.45 194.21 9.87 201.02 7.66 195.06 0 189.11 5.45"/>
    </g>
  </g>
</svg>