<?xml version="1.0" encoding="UTF-8"?>
<svg id="_레이어_2" data-name="레이어 2" xmlns="http://www.w3.org/2000/svg" viewBox="0 0 92.6 140.6">
  <defs>
    <style>
      .cls-1 {
        fill: #acb88d;
      }
    </style>
  </defs>
  <g id="_레이어_1-2" data-name="레이어 1">
    <path class="cls-1" d="m92.6,27.57l-22.13-22.47L54.81,0,18.04,3.74,0,33.36l5.45,68.43.68,35.74,45.96,3.06,40.51-5.45-3.06-65.36,3.06-42.21Zm-23.57-13.45l.94,37.45,1.53,28.6h-4.6l1.02-26.89v-19.4l-1.82-22.19,2.92,2.44ZM7.66,81.7l16.51.51,1.34-.04-2.02-70.94,2.72-.81,1.96,71.53-.42.16,18.85-.5-1.5-74.3,3.4-1.19-1.02,15.49,2.44,59.92h.12s35.91-1.36,35.91-1.36l1.19,2.81-29.45,4-50.04-2.55v-2.72Zm6.38,10.21l-2.21,1.11-2.3-2.13,1.28-1.7,2.72,1.19.51,1.53Zm56.26,42.89v-8.51l-1.5-18.55v-7.83l2.7,1.02v19.57l1.7,14.3h-2.89Zm18.38-37.11h-9.87l-27.48,3.37,2.8,36.29h-4.09l.81-11.74-2.17-21.62-.52-2.54-4.08.5-14.65-.9-1.27,16.05,1.28,17.7h-3.62l1.06-30.98-.81-2.98-15.19-.93-2.36-2.21,30.62.85,30.81-2.72,18.72-.68v2.55Z"/>
  </g>
</svg>