<?xml version="1.0" encoding="UTF-8"?>
<svg id="_레이어_2" data-name="레이어 2" xmlns="http://www.w3.org/2000/svg" viewBox="0 0 129.19 69.92">
  <defs>
    <style>
      .cls-1 {
        fill: #acb88d;
      }
    </style>
  </defs>
  <g id="_레이어_1-2" data-name="레이어 1">
    <path class="cls-1" d="m40.85,22.13l7.83-7.54V5.45h-11.03l-8.03,6.81V0H13.59l-4.11,7.83,8.22,9.53-13.28-1.02L0,27.4l6.81,3.57,11.23-.68-3.06,11.49,10.21,5.7,6.81-3.4,2.04-9.7,11.23,8.51,7.83-4v-11.49l-12.26-5.28Zm-14.3,5.53l-3.95-2.81,7.15-3.83,2.04,6.64h-5.24Z"/>
    <path class="cls-1" d="m112.17,40.39l11.23-5.87,2.38-9.53-6.81-8.34-7.83,6.98-21.11-15.32-5.45,2.72-.34,17.11,7.83,2.98h-21.45l1.02,10.89,5.45,4.51h11.23l-12.94,11.83,6.47,11.57,25.53-9.19-3.74-10.55,13.28,8.04,10.21-4.64,2.04-13.19h-17.02Zm-9.53,0l-5.79-6.55h5.79l6.13,3.28-6.13,3.28Z"/>
  </g>
</svg>