<?xml version="1.0" encoding="UTF-8"?>
<svg id="_레이어_2" data-name="레이어 2" xmlns="http://www.w3.org/2000/svg" viewBox="0 0 157.96 143.15">
  <defs>
    <style>
      .cls-1 {
        fill: #acb88d;
      }
    </style>
  </defs>
  <g id="_레이어_1-2" data-name="레이어 1">
    <g>
      <polygon class="cls-1" points="39.06 141.11 70.04 29.45 75.83 38.98 75.83 33.87 82.64 31.45 86.72 35.57 90.13 31.45 93.19 26.04 97.62 38.64 113.28 125.11 119.06 139.74 48.26 143.15 39.06 141.11"/>
      <polygon class="cls-1" points="70.89 26.04 74.21 33.45 83.4 28.74 86.21 31.45 88.85 31.45 92.94 23.49 82.89 5.87 80.77 0 74.3 20.17 70.89 26.04"/>
      <polygon class="cls-1" points="129.36 41.18 120.17 45.67 108.94 37.28 100 38.78 98.83 40.16 100.94 51.14 102.47 56.42 98.72 58.12 96.51 44.67 95.98 43.5 91.32 48.97 76.26 42.08 66.56 45.67 60.94 63.74 59.74 63.74 61.96 55.74 64.3 43.29 58.64 37.28 49.7 42.38 36.26 41.18 34.89 48.37 21.87 54.36 26.17 58.86 34.64 77.14 51.74 67.25 62.72 70.84 79.11 81.03 92.6 74.74 102.3 66.35 112 66.05 124.46 73.24 132.94 65.45 132.94 55.56 137.79 48.07 129.36 41.18"/>
      <polygon class="cls-1" points="134.21 23.05 130.13 26.02 135.67 30.4 135.67 34.93 144.44 34.93 153.57 37.28 155.95 33.68 153.94 28.83 157.96 23.05 146.45 19.14 141.7 21.44 134.94 21.44 134.21 23.05"/>
      <polygon class="cls-1" points="6.81 92.16 0 100.16 6.81 107.31 14.72 104.69 20.26 105.78 24.34 103.57 26.89 100.85 34.04 99.74 35.23 93.45 31.91 93.45 28.94 88.55 20.6 86.55 17.62 89.61 12.26 86.55 4.43 89.95 6.81 92.16"/>
    </g>
  </g>
</svg>