<?xml version="1.0" encoding="UTF-8"?>
<svg id="_레이어_2" data-name="레이어 2" xmlns="http://www.w3.org/2000/svg" viewBox="0 0 79.17 102.59">
  <defs>
    <style>
      .cls-1 {
        fill: #f7eac9;
      }
    </style>
  </defs>
  <g id="_레이어_1-2" data-name="레이어 1">
    <g>
      <path class="cls-1" d="m65.48,16.52L43.45,0l-27.4,8.28L0,23.46l5.64,41.63,8.21,13.74-9.67,20.84,6.83-.98,10.76-6.59,1.87,3.12,17.56,7.37,26.89-8.18,11.09-16.1-13.69-61.79Zm-1.95,73.88l-19.84,6.5-14.96-7.64-15.29-21.63L6.45,29.42l8.78-12.68,13.82-9.11,23.74,4.18,13.33,19.89,5.69,51.06-8.29,7.64Z"/>
      <polygon class="cls-1" points="60.76 27.96 56.21 22.1 54.1 26.33 41.25 63.73 33.77 71.21 24.99 77.72 26.78 82.11 32.31 86.01 32.31 80.64 39.58 73.49 51.82 46.33 56.86 31.21 60.76 27.96"/>
      <polygon class="cls-1" points="66.62 59.5 63.36 64.38 63.85 66.33 59.3 85.03 57.51 89.59 61.58 87.15 62.39 79.89 65.8 69.58 67.43 66.33 66.62 59.5"/>
      <polygon class="cls-1" points="66.78 52.27 64.18 53.16 55.72 72.35 52.06 89.18 54.42 90.4 54.42 84.87 64.18 58.2 66.78 52.27"/>
    </g>
  </g>
</svg>