<?xml version="1.0" encoding="UTF-8"?>
<svg id="_레이어_2" data-name="레이어 2" xmlns="http://www.w3.org/2000/svg" viewBox="0 0 207.21 133.02">
  <defs>
    <style>
      .cls-1 {
        fill: #f7eac9;
      }
    </style>
  </defs>
  <g id="_레이어_1-2" data-name="레이어 1">
    <g>
      <path class="cls-1" d="m155.91,53.31l-24.31-5.01-72.19-2.51-34.09,19.05v11.53l13.28,17.04-4.01,29.08,13.54,10.53v-38.1l14.54,8.02v23.06l8.02,1,4.01-26.57,21.06-2.51-2.63,21.56,15.67.5-6.27-19.05,19.18-.5v25.07h9.9v-32.08l15.29-4.51v21.06h12.03l-5.51-30.58,5.51-18.55-3.01-7.52Zm-7.02,18.8v-6.52l-6.27,2.26v14.29l-10.03,1-8.77-4.76-4.51.5v13.03h-16.04l3.76-8.02-5.76-2.26-5.76,4.51-21.31,5.77v-13.79h-9.27l2.26,5.26h-17.3v-11.15l-9.78-3.38-1.5,6.77-5.01-1.25-2.51-6.02,39.1-14.79,54.89,6.77h23.31l3.26,2.51-2.76,9.27Z"/>
      <path class="cls-1" d="m194.84,28.41h-14.17c-.56-10.06-1.04-18.72-1.04-18.72l-9.69,4.18,1.24,14.54h-15.44s-1.55-.1-4.09-.26V0l-5.43,3.01v24.79c-4.56-.29-10.26-.65-16.04-1.02V3.01h-8.52l-2.92,23.04c-8.78-.55-15.77-.99-16.13-.99-.23,0-1.71-.84-3.83-2.12l1.54-17.93-15.76-5.01,1.43,14.91c-4.48-2.86-8.11-5.22-8.11-5.22l-17.11,4.71-.82-11.39-4.46,3.01-.77,10.05-19.98,5.5-1.31-18.56-14.18,4.51,3.73,17.28-17.96,4.94L0,65.84l15.04,38.43h16.04v-4.34l-11.36-6.35-5.01-23.39-6.18-13.2,13.54-18.21,3.8-.64,2.8,12.98,7.77-5.33-.65-9.32,17.59-2.95-.39,5.08h9.53l-.47-6.53,21.86-3.66,3.44.53,1.07,11.17,8.7,2.51,1.03-12,19.65,3.04-.63,4.95,13.03,2.01v-5.03l16.04,2.48v4.55l5.43,2.84v-6.55l20.71,3.21,1.27,14.87s8.69,3.68,8.69,2.17c0-.55-.36-7.29-.81-15.63l1.65.25,11.36,28.95-21.06,11.15-11.36,2.34,4.68,5.68,30.41-11.03,10.03-12.7-12.37-39.77Z"/>
    </g>
  </g>
</svg>