<?xml version="1.0" encoding="UTF-8"?>
<svg id="_레이어_2" data-name="레이어 2" xmlns="http://www.w3.org/2000/svg" viewBox="0 0 206.9 259.88">
  <defs>
    <style>
      .cls-1 {
        fill: #f7eac9;
      }
    </style>
  </defs>
  <g id="_레이어_1-2" data-name="레이어 1">
    <path class="cls-1" d="m202.71,223.91l-23.62-13.43-18.79-11.99,12.59-10.19v-14.39l-20.78-94.52-30.11-10.66-4-6.13v-4l4.53,1.07v-16.79l3.2-11.19-5.33-4,2.4-7.73-3.73-6.66-5.6-4-1.33-4.26-4.8-5.06h-13.59l-4.53,4-2.66,1.86v4l-6.93,5.23-1.33,12.89-3.73,6.93,3.2,10.96v12.21h4.13l1.5,3.73-5.9,7.31-27.71,6.28-5.53,19.98-3.26,62.94-7.19,20.98,2.6,23.55-32.21,12.39-4.2,19.18,14.39,20.38,72.34-2.77,70.47,2.4,25.13,5.45,24.58-16.19-4.2-19.78Zm-136.57-35.55l-4.34,4.54,2.89-36.34,2.06-16.52,3.72,17.76-4.34,30.56Zm70.1-20.03l1.86-17.34,1.86,13.63-3.72,3.72Z"/>
  </g>
</svg>