<?xml version="1.0" encoding="UTF-8"?>
<svg id="_레이어_2" data-name="레이어 2" xmlns="http://www.w3.org/2000/svg" viewBox="0 0 235.58 275.03">
  <defs>
    <style>
      .cls-1 {
        fill: #f7eac9;
      }
    </style>
  </defs>
  <g id="_레이어_1-2" data-name="레이어 1">
    <g>
      <polygon class="cls-1" points="95.29 119.79 111.59 115.03 111.76 172.24 93.25 183.14 82.55 191.8 46.37 194.35 43.31 209.13 78.98 262.12 95.8 270.78 137.75 275.03 167.64 247.51 188.53 194.01 176.81 186.37 146.92 193.5 133.33 182.61 123.91 154.75 121.1 102.1 136.22 101.96 155.07 122.34 179.53 110.95 185.14 119.79 198.39 128.79 204.5 119.79 216.73 115.89 223.35 92.61 235.58 89.04 227.94 76.81 223.86 61.53 229.47 51.85 217.24 34.01 195.33 25.86 178 14.01 161.7 15.45 142.33 0 123.99 11.59 105.65 5.99 95.46 0 74.05 0 75.07 14.01 61.83 20.76 38.9 23.82 24.63 37.07 24.63 43.18 10.87 50.83 0 87.86 6.62 91.93 8.66 101.61 34.65 116.9 49.43 111.29 60.64 116.9 64.2 127.6 86.79 129.81 87.81 111.29 95.29 119.79"/>
      <polygon class="cls-1" points="130.78 121.9 141.9 128.85 141.63 140.05 130.15 129.31 130.78 121.9"/>
      <polygon class="cls-1" points="175.72 169.59 183.05 176.54 184.87 186.55 178.26 180.09 175.72 169.59"/>
      <polygon class="cls-1" points="80.68 152.74 84.25 148.92 88.32 148.92 87.47 159.36 80.68 163.18 80.68 152.74"/>
    </g>
  </g>
</svg>