<?xml version="1.0" encoding="UTF-8"?>
<svg id="_레이어_2" data-name="레이어 2" xmlns="http://www.w3.org/2000/svg" viewBox="0 0 219.74 119.83">
  <defs>
    <style>
      .cls-1 {
        fill: #f7eac9;
      }
    </style>
  </defs>
  <g id="_레이어_1-2" data-name="레이어 1">
    <polygon class="cls-1" points="37.15 61.79 8.68 33.19 0 9.7 14.84 4.6 40.34 4.6 73.02 0 83.54 8.17 103.15 35.74 121.31 42.38 127.57 30.89 150.65 30.89 191.83 28.43 197.45 33.87 197.45 40 180.43 39.15 157.62 40.34 141.62 44.77 142.98 47.66 188.77 58.55 208.5 56.51 219.74 58.89 219.74 79.66 205.45 106.89 175.69 115.74 123.4 119.83 100.6 112 66.89 92.6 57.36 80 43.74 80 36.6 72.85 37.15 61.79"/>
  </g>
</svg>