<?xml version="1.0" encoding="UTF-8"?>
<svg id="_레이어_2" data-name="레이어 2" xmlns="http://www.w3.org/2000/svg" viewBox="0 0 205.53 169.36">
  <defs>
    <style>
      .cls-1 {
        fill: #82bf25;
      }
    </style>
  </defs>
  <g id="_레이어_1-2" data-name="레이어 1">
    <path class="cls-1" d="m190.73,134.42h-9.67l-8.49-12.24-26.85-20.33-25.86-4.93-6.32,4.05s-8.29-1.09-8.29-2.08.39-22.5.39-22.5l-2.37-5.53,11.65-1.97,3.75,7.9,11.65,7.5,29.41-5.33,16.38,2.65,9.08-19.03-24.08-5.72-2.57-3.16-16.58-.59-8.29,7.3-19.34,2.37-1.97-6.32,10.86-13.62,45.99-5.43v-9.57l-11.45-.79-5.53-15.4L112.95,0l-29.81,2.17-15.79,24.27,14.49,12.71-28.71,1.96-17.57,5.13,1.97,7.9,8.69,4.74h-14.78L0,80.48l2.96,6.51,14.8-2.37,21.52,2.37,17.77-4.74,7.11,10.66,28.87-9.22-7.11,10.46,3.95,11.25,16.98,6.32,27.83,3.75,18.36,12.83,2.96,10.26-13.82-1.58-23.88,6.71-.99,20.92,26.45,4.74h56.06l5.72-23.09-14.8-11.84Zm-89.65-33.81l-1.79-11.49,1.79,3.06v8.43Zm53.36,14.3l5.11,2.81,10.98,7.91-9.7-5.11-6.38-5.62Zm17.49,21.83l-6.26-10.09,2.55,2.04,3.7,6.89v1.15Z"/>
  </g>
</svg>