<?xml version="1.0" encoding="UTF-8"?>
<svg id="_레이어_2" data-name="레이어 2" xmlns="http://www.w3.org/2000/svg" viewBox="0 0 131.52 109">
  <defs>
    <style>
      .cls-1 {
        fill: #82bf25;
      }
    </style>
  </defs>
  <g id="_레이어_1-2" data-name="레이어 1">
    <path class="cls-1" d="m29.04,71.34l5.05,8-4.63,20.83-6.52,5.89,2.74,2.95,12.1-1.26,2.63-23.57,11.57.63-1.47,3.79-8.63,1.89,3.16,5.05,12.21-.42,3.37-5.89,5.68-3.37,18.94-2.1-1.89,9.47,2.95,9.05-2.74,5.05,6.73,1.68,1.47-9.05,2.95-11.99,9.26,3.58h13.05l11.57,2.53,2.95-3.16-7.37-3.37,4.84-3.79-1.47-2.74,2.53-6.94-1.05-9.47-4-4,2.53-9.68-5.05-1.89.84-2.74,4-5.68-10.1,1.89,14.31-12.42-10.94,1.68,4.63-6.52s-1.26-1.05-2.32,0c-1.05,1.05-10.94-.47-10.94-.47l1.89-8.16-9.47-1.26-.21,3.45-8.84-7.24-1.05-6.73-2.32-4.84-2.95,6.31-2.74-4.84h-8.21l.84,1.26-3.79,2.53-22.52,2.74-3.37-3.16,1.05,5.68-10.1,5.26-15.78-1.47-.21,5.89.42,3.16-6.52,1.47,1.89,3.79.84,3.26L4.73,58.08l-4.73,1.26v6.94h10.42l1.79-1.68,16.83,6.73Zm7.28-18.73h-3.89l-2.53-3.37,1.37-2.84,5.16-1.26,2.63,4.1-2.74,3.37Zm23.46-22.99l7.42,8.84.79,6.68,14.52,8.15,4.95,4.1,7.84-1.26,6.15,6.47,1.1,5.84,9.94.47,6.94.63-.16,6.31,2.21,4.26.32,4.73h2.53l-2.37,3.16h-4.1l1.26-4.42-7.42-2.05s.16-2.68,1.1-3.47c.95-.79,3.95-3.95,4.26-4.42.32-.47-11.99-3-11.99-3l-7.89-2.84v-3.16l-8.05-4.58-12.31-2.21-3.31-3.37,1.42-3.1-9.94-1.74,1.58-3-9-7.89-12.31-1.1-3.47-3.95-2.74-2.53-6.89.63-2.26-3.16-2.47,2.21s-1.5-4.5-1.84-4.73c-.34-.24,3.34,1.34,3.34,1.34l1.82-2.05,1.5-1.26,1.18,3.55,4.18,1.74,1.45-1.42,2.58,2.29.63-3.08.95,3.95,1.89,2.21,3.63-4.73,3.31,5.68,7.73-4.73Z"/>
  </g>
</svg>