<?xml version="1.0" encoding="UTF-8"?>
<svg id="_레이어_2" data-name="레이어 2" xmlns="http://www.w3.org/2000/svg" viewBox="0 0 132.25 66.81">
  <defs>
    <style>
      .cls-1 {
        fill: #82bf25;
      }
    </style>
  </defs>
  <g id="_레이어_1-2" data-name="레이어 1">
    <path class="cls-1" d="m113.86,35.49l-3.57-5.87,2.55-6.13,3.32-1.96-4.85-2.38-10.21-15.32-6.59,1.02-3.11,2.04L72.5,0l-24,2.04L13.52,10.21l-4.34,4.34,19.92-2.04,15.32-2.04-5.83,6.64-11.02-.77L0,30.48l33.18-5.46,10.55,4.68,8.51,4.43-10.21,17.28-12.26,6.55,16-5.36,6.47-15.06,3.06-2.04,21.11,2.38-3.4,3.74,6.47,12.94v12.26l1.7-8.85v-9.53l-2.38-6.47,7.49-2.38,8.21-5.45,1.32,10.72,8.17,6.55h4.08l-5.79-5.02-5.92-9.11,11.7-4.6,6.3,6.38,17.87,1.28-18.38-4.85ZM16.21,11.42l1.85-1.02,5.17.51-7.02.51Zm11.87,0h-1.92l1.4-2.17,1.28-.64-.77,2.81Zm-13.66,13.66l5.36-3.06,1.92,1.53-7.28,1.53Zm10.98,0l-1.53-5.36,6.13-1.02-3.06,5.87-1.53.51Zm4.6-1.53l3.45-4.85h1.91l-5.36,4.85Zm3.19-13.15l-2.55-.89,9.06-3.7h2.3l-8.81,4.6Zm12.26-3.19h-2.3l1.15-2.94h3.57l-2.43,2.94Z"/>
  </g>
</svg>