<?xml version="1.0" encoding="UTF-8"?>
<svg id="_레이어_2" data-name="레이어 2" xmlns="http://www.w3.org/2000/svg" viewBox="0 0 51.76 40.09">
  <defs>
    <style>
      .cls-1 {
        fill: #82bf25;
      }
    </style>
  </defs>
  <g id="_레이어_1-2" data-name="레이어 1">
    <path class="cls-1" d="m51.76,8.14L39.63,0,12.87,3.16,0,9.34l1.51,9.48,15.14,21.28,17.06-5.09,17.01-15.78,1.03-11.09Zm-18.16-6.04l-.02,2.57-4.74-1.45,4.76-1.12Zm6.03.7l3.19,1.17-4.12,1.48,1.09,5.55-2.65-2.51-4.9-.34-7.39,4-10.94-1.51,7.95-.39,12.54-4.05,5.23-3.38Zm-18.31,27.14l.88-6.2-.23-7.08h-8.87l2.69,15.39-1.87-3.47-3.85-13.39-7.86-4.96h1.63l8.79,4.73,14.8-.5-3.98,7.05.51,7.11-2.64,1.32Zm27.02-19.36l-7.27,3.79,4.86,3.11-.86,1.97-4.75-3.35-3.35,11.12-1.94,4.83-.54-2.64,1.71-5.66,1.32-9.27,11.59-5.6-.78,1.71Z"/>
  </g>
</svg>