<?xml version="1.0" encoding="UTF-8"?>
<svg id="_레이어_2" data-name="레이어 2" xmlns="http://www.w3.org/2000/svg" viewBox="0 0 63.41 151.52">
  <defs>
    <style>
      .cls-1 {
        fill: #b4ddd5;
      }
    </style>
  </defs>
  <g id="_레이어_1-2" data-name="레이어 1">
    <polygon class="cls-1" points="8.44 103.98 0 80.36 4.22 55.85 4.22 34.91 10.67 38.03 12.9 49.61 12.9 62.54 15.57 59.86 19.69 30.9 23.51 18.42 25.38 3.27 32.75 0 32.75 10.7 30.43 38.92 42 8.32 44.69 0 50.33 0 50.33 3.27 46.77 24.96 52.12 13.37 56.27 6.24 59.6 6.83 59.6 13.37 52.41 49.32 54.2 50.51 57.76 40.7 59.6 29.41 63.41 28.82 63.41 39.22 59.6 56.45 52.12 90.32 44.39 102.2 58.35 138.44 48.43 151.52 23.51 151.52 13.79 117.65 8.44 103.98"/>
  </g>
</svg>