<?xml version="1.0" encoding="UTF-8"?>
<svg id="_레이어_2" data-name="레이어 2" xmlns="http://www.w3.org/2000/svg" viewBox="0 0 214.47 92.94">
  <defs>
    <style>
      .cls-1 {
        fill: #b4ddd5;
      }
    </style>
  </defs>
  <g id="_레이어_1-2" data-name="레이어 1">
    <path class="cls-1" d="m181.28,4.34l-34.98-1.02-21.45.51L71.23,0l-18.64,2.3-21.7,7.66-5.62,2.81-9.45,2.3L0,33.7l3.57,11.23,3.32,14.81,40.6,29.87,27.32,3.32,26.55-1.53,33.96-2.34,7.4-.26,6.38,1.83,27.83-.26,8.94-7.91,27.57-20.43,1.02-38.3-33.19-19.4Zm-30.55,62.94l-40.34,6.98-7.83-2.21,50.38-7.66,18.13-13.94,8.43-18.38-4.6-8.94,4.6,4.85,5.36,3.06-8.94,14.55-6.21,8.68-18.98,13.01Zm51.74-22.45l-2.55,8.17-8.94,12.77-26.55,6.38-9.45,3.06,3.06-3.06,34.47-11.74,6.38-11.63,1.53-11.6h2.04v7.66Z"/>
  </g>
</svg>