<?xml version="1.0" encoding="UTF-8"?>
<svg id="_레이어_2" data-name="레이어 2" xmlns="http://www.w3.org/2000/svg" viewBox="0 0 79.91 103.66">
  <defs>
    <style>
      .cls-1 {
        fill: #b4ddd5;
      }
    </style>
  </defs>
  <g id="_레이어_1-2" data-name="레이어 1">
    <path class="cls-1" d="m23.74,99.48l32.85,4.18,18.47-12.77,4.85-57.45-5.87-22.21L56.68,3.06l-7.92,1.36-2.55-4.43-16.85,6.64-1.53,3.83-8.68,2.3-13.53,10.47L0,38.04l23.74,61.44Zm1.28-78.71l.77,6.98-1.53,2.98-1.7,1.62-5.79-10.04,8.26-1.53Zm-13.7,8.34l2.04-4.09,4.94,9.02-3.74,2.89-3.23-7.83Zm9.96,41.74l-4.51-.99,3.85-2.9,2.62-7.47,2.55,6.55-4.51,4.81Zm.34-20.3l-3.32-5.28,3.57-1.02,3.06,4.43-3.32,1.87Zm7.23-3.83l-3.06-7.06,3.4-2.72,2.72,8.51-3.06,1.28Zm1.7-20.62l-3.06-6.53,1.36-2.89,3.06-1.36,1.02,9.7-2.38,1.09Zm6.81,12.7l-1.45,1.02-1.45-6.64,2.89-.85v6.47Zm13.16,13.72l-6.69.84,5.7-4.6,7.92,1.79,3.97,8.95,7.95,6.54-7.32-2.21-11.52-11.31Z"/>
  </g>
</svg>