<?xml version="1.0" encoding="UTF-8"?>
<svg id="_레이어_2" data-name="레이어 2" xmlns="http://www.w3.org/2000/svg" viewBox="0 0 73.62 218.22">
  <defs>
    <style>
      .cls-1 {
        fill: #b4ddd5;
      }
    </style>
  </defs>
  <g id="_레이어_1-2" data-name="레이어 1">
    <g>
      <path class="cls-1" d="m55.43,61.37L46.51,0,12.97,3.38,0,1.95l8.14,106.27,15.18,110,21.68-2.18,28.62-1.17L55.43,61.37Zm-37.3-27.25l-.12-1.15,4.89-1.22,8.94-2.21-6.58-4.72-8.31-2.36,5.11-3.42,4.33-7.56,4.03,1.77-7.88,8.35,9.59,2.09,5.14,3.41-4.46,5.54s-14.03,1.41-14.68,1.48Zm10.62,176.82l-5.45-23.5-8.86-74.38,42.88-2.31-.79,9.11,5.62,38.8,5.31,52.73-38.71-.45Z"/>
      <polygon class="cls-1" points="39.07 204.75 40.27 195.43 41.29 195.33 45.28 205.28 55.11 204.29 55.35 189.34 49.4 188.4 53.09 202.14 47.84 202.67 39.83 185.12 37.54 185.35 37.16 201.95 39.07 204.75"/>
    </g>
  </g>
</svg>