<?xml version="1.0" encoding="UTF-8"?>
<svg id="_레이어_2" data-name="레이어 2" xmlns="http://www.w3.org/2000/svg" viewBox="0 0 195.32 130.9">
  <g id="_레이어_1-2" data-name="레이어 1">
    <g>
      <polygon points="104.68 122.36 59.48 118.34 58.72 130.9 87.83 130.9 129.19 130.9 150.63 118.34 137.61 120.35 104.68 122.36"/>
      <path d="m153.96,22.21L88.85,5.11,42.13,0,5.36,44.43,0,63.68l47.49-28.83h27.13l-18.7,39.38,15.32,24.51,32.94,15.32,22.21-9.96,16.09-29.87v-24.04l33.7,18.75,19.15,16.85v-11.56l-41.36-52.01Zm-28.46,47.22l-12.8,3.57-2.38,6.25,8.63,7-3.13,6.1-8.34-2.38-.89-9.23h-3.72l-5.51,5.96-2.38,8.78-6.55-4.76,2.68-3.57,2.68-7.44-5.66-1.34-11.02,1.34-3.42-3.72,18.46-2.98-1.64-5.36-11.31-3.57,3.28-5.66,10.12,4.32,3.72,3.57-1.64-5.81-.15-6.85,1.34-10.42,5.14,3.42-.67,11.76.67,4.32,5.28.89,1.64-5.36,7.15-10.72,2.68,4.91-8.04,11.76,1.79,3.57,9.53-5.06-.45-5.81,2.08-5.21,4.32,5.51-1.49,12.21Z"/>
    </g>
  </g>
</svg>