<?xml version="1.0" encoding="UTF-8"?>
<svg id="_레이어_2" data-name="레이어 2" xmlns="http://www.w3.org/2000/svg" viewBox="0 0 264.63 187.4">
  <g id="_레이어_1-2" data-name="레이어 1">
    <path d="m254.18,107.74l-18.38,34.72-20.43,8.17-24.51,11.23-46.37-15.26-6.16-4.65-1.66-9.81,42.46,18.49,50.53-11.23,24.51-46.98-120.73,20.54-8.2-48.62V7.15L15.62,0H0l5.16,75.57,10.47,84.77h55.86l43.95-3.85,7.68,30.91h44.25l97.26-19.4-10.45-60.26ZM46.35,28.09h53.16l-40.9,7.15-31.4-12,19.15,4.85Zm61.11,21.28l-13.28,7.83-52.94,2.55-9.87-7.83,17.36,2.04h37.57l21.16-4.6Zm-7.95,31.83h-27.06l-41.07,7.66,7.83-7.66,44.43-4.6h15.88v4.6Z"/>
  </g>
</svg>