<?xml version="1.0" encoding="UTF-8"?>
<svg id="_레이어_2" data-name="레이어 2" xmlns="http://www.w3.org/2000/svg" viewBox="0 0 166.59 88.54">
  <defs>
    <style>
      .cls-1 {
        fill: #162c86;
      }
    </style>
  </defs>
  <g id="_레이어_1-2" data-name="레이어 1">
    <path class="cls-1" d="m164.35,34.41l-11.38-2.36-12-8.2-2.07,1.26L124.98,0H38.17l-15.95,22.41-4.52,16.26-6.9-.23-5.12-2.88L0,48.49l8.91,6.92-3.38,15.78,14.27,10.81,17.65,6.54.43-8.13,19.99-1.97,10.81-8.34-2.48-10.17-6.21-6.72,1.33-2.55,22.47-6.05,24.1,3.2v13.58l6.62,12.51h11.92l16.17-4.71,4.26-10.03,17.51-2.44,2.23-10.93-2.23-11.39ZM24.55,29.73L49.92,7.97h25.79l48.77.66,8.73,19.97-2.41,1.47-15.85-16.56h-38.4l-33.6,2.95-18.38,17.91,1.21,4.59-3.88-.13,2.67-9.09Zm100.16,5.97l-7.22-9.42h-49.02l-26.04,11.46-3.98,9.72-.94-8.11-2.62-.09.39-4.89,9.7-8.09,42.89-7.25,28.09,4.18,9.07,10.38-.31.19v1.92Zm-66.82,5.34l-9.61,14.68-6.28-1.56,10.12-17.17,22.54-6.12h18.8l24.53,10.06,2.07,2.89-7.99,2.45-10.75-9.28-43.44,4.05Z"/>
  </g>
</svg>