<?xml version="1.0" encoding="UTF-8"?>
<svg id="_레이어_2" data-name="레이어 2" xmlns="http://www.w3.org/2000/svg" viewBox="0 0 204.34 109.65">
  <defs>
    <style>
      .cls-1 {
        fill: #162c86;
      }
    </style>
  </defs>
  <g id="_레이어_1-2" data-name="레이어 1">
    <path class="cls-1" d="m147.66,0L62.38,7.52,13.87,25.91,0,51.44l14.38,47.49,110.81,10.72,70.47-24,8.68-25.02v-31.15L147.66,0ZM42.64,22.16l11.92-.51,19.57,2.72-2.55,12.77-28.94,4.09-3.23-10.21,3.23-8.85Zm-16,43.06v-11.54l16-8.89,17.19,2.04-3.06,14.4-17.36,7.56-12.77-3.57Zm47.49,27.57h-14.3l-5.28-10.21,10.38-9.19,19.4-2.55-10.21,21.96Zm28.04-56.17l-20.89-8.17-2.38-13,15.66-4.87,15.32,16.85-7.7,9.19Zm85.83,40.17l-29.11,5.02-7.15-8.94-8.68-11.74,27.57-4.34,20.43,4.34-3.06,15.66Z"/>
  </g>
</svg>