<?xml version="1.0" encoding="UTF-8"?>
<svg id="_레이어_2" data-name="레이어 2" xmlns="http://www.w3.org/2000/svg" viewBox="0 0 101.06 118.48">
  <defs>
    <style>
      .cls-1 {
        fill: #162c86;
      }
    </style>
  </defs>
  <g id="_레이어_1-2" data-name="레이어 1">
    <polygon class="cls-1" points="35.11 3.31 31.7 11.91 28.3 14.3 25.92 24.17 22 38.47 25.92 73.02 28.64 84.85 22.68 90.3 5.87 94.99 0 108.27 4.43 118.48 37.15 114.23 44.98 105.03 50.53 88.18 54.26 99.84 62.75 110.22 96.64 114.23 101.06 100.95 101.06 89.03 76.64 86.81 71.53 73.02 70.85 43.65 69.15 14.3 63.02 6.13 55.87 0 50.77 4.77 50.77 11.91 46.68 15.82 44.47 11.91 40.21 0 35.11 3.31"/>
  </g>
</svg>