<?xml version="1.0" encoding="UTF-8"?>
<svg id="_레이어_2" data-name="레이어 2" xmlns="http://www.w3.org/2000/svg" viewBox="0 0 395.25 304.5">
  <defs>
    <style>
      .cls-1 {
        fill: #c34d27;
      }
    </style>
  </defs>
  <g id="_레이어_1-2" data-name="레이어 1">
    <path class="cls-1" d="m373.24,20.55L319.02,0l-22.59,15.65-28.86,4.89-34.73-.49-6.36-10.76-29.84-6.85-19.08,18.1,10.76,15.65-3.91,8.29h-20.06l-11.25,13.73v11.74l8.32,14.19h-10.27l3.42,27.88v27.47l-20.06-11.81-42.56-37.61-38.58,52.01-42.56,30.49-10.8,3.83,10.8,2.94,34-.91,1.55,72.74-13.54,53.32,133.06-4.89.49-76.31,6.84-35.1,43.97-15.36,11.25-12.38-27.4-.49-32.29-10.33-3.91-14.13,8.32-30.33-.49-21.52-3.42.49,2.45-4.4,15.65,2.45,11.52-3.42h11.96l1.47,23.97,46.49,4.4,23.12-12.68,19-22.06,24.2-1.47,8.03,11.74,33.27,21.52,18.59,3.42,10.27-27.88-22.01-59.19ZM73.18,231.37l-3.3-15.41,3.3-2.94,21.65,2.2,6.24,11.37-27.88,4.77Zm27.98-28.9l-23.3,1.75v-29.99l2.91-6.7,21.84,1.75-4.08,17.76,2.62,15.43Zm20.82,17.52l-10.82-4.04,1.28-20.18-2.57-16.14,12.11-3.67v44.03Z"/>
  </g>
</svg>