<?xml version="1.0" encoding="UTF-8"?>
<svg id="_레이어_2" data-name="레이어 2" xmlns="http://www.w3.org/2000/svg" viewBox="0 0 164.78 139.73">
  <defs>
    <style>
      .cls-1 {
        fill: #c34d27;
      }
    </style>
  </defs>
  <g id="_레이어_1-2" data-name="레이어 1">
    <polygon class="cls-1" points="35.25 34.96 55.02 14.04 86.54 0 98.29 0 98.29 7.16 89.7 17.48 103.45 19.2 101.45 25.22 83.97 39.55 75.08 44.42 103.45 41.84 130.96 53.59 135.26 61.61 151.02 55.24 164.78 63.91 157.61 86.26 145.58 86.26 147.01 105.46 124.37 134.98 103.17 139.73 62.19 136.98 60.47 133.66 49 133.66 35.25 136.98 26.94 133.66 26.94 120.65 40.69 119.5 26.94 109.18 23.79 89.98 2.29 81.39 0 71.93 5.44 48 19.77 36.68 35.25 34.96"/>
  </g>
</svg>