<?xml version="1.0" encoding="UTF-8"?>
<svg id="_레이어_2" data-name="레이어 2" xmlns="http://www.w3.org/2000/svg" viewBox="0 0 127.7 226.48">
  <defs>
    <style>
      .cls-1 {
        fill: #c34d27;
      }
    </style>
  </defs>
  <g id="_레이어_1-2" data-name="레이어 1">
    <path class="cls-1" d="m125.75,31.72l1.95-19.63L40.96,0,5.27,193.46l-5.27,18.03,85.89,14.99,24.3-83.17s2.41-68.73,15.56-111.6ZM51.38,11.88l62.95,9.24-9.35,31.99-62.35-11.28,8.75-29.95Zm-19.07,84.7l10.81-46.71,54.45,10.23,7.56,2.21-13.59,46.53-59.23-12.26Zm41.07,105.74s-9.67-4.72-25.23-5.48c0,0-15.97-1.51-21.7-3.5l7.31-25.01,20.45,3.45,25.11,4.81-.33,6.53s.38,12.74-5.61,19.19Zm17.72-34.62c-1.92-.76-15.76-5.91-40.53-6.13l-21.91-3.88,13.25-45.36,53.63,8.73-1.53,5.23s3.52,9.55-.38,28.3c-1.69,8.12-2.34,11.68-2.54,13.12.15.06.26.1.26.1,0,0-.52,1.77-.26-.1Z"/>
  </g>
</svg>