<?xml version="1.0" encoding="UTF-8"?>
<svg id="_레이어_2" data-name="레이어 2" xmlns="http://www.w3.org/2000/svg" viewBox="0 0 162.14 164.59">
  <defs>
    <style>
      .cls-1 {
        fill: #c34d27;
      }
    </style>
  </defs>
  <g id="_레이어_1-2" data-name="레이어 1">
    <polygon class="cls-1" points="25.09 8.57 31.21 24.47 53.23 24.47 6.12 42.89 10.4 61.19 29.68 61.19 29.68 72.2 19.58 72.2 19.58 94.53 45.28 98.62 43.44 113.81 34.26 116.87 34.26 122.58 38.55 122.58 39.16 134 0 137.67 0 164.59 124.21 164.59 124.21 142.56 148.07 140.42 147.66 120.13 140.93 120.13 140.42 110.54 134.61 110.54 130.94 98.62 136.45 96.12 136.45 68.53 162.14 67.92 162.14 53.84 125.43 52.01 127.27 35.49 128.49 26.92 146.85 26.92 148.68 0 41.61 3.67 25.09 8.57"/>
  </g>
</svg>