<?xml version="1.0" encoding="UTF-8"?>
<svg id="_레이어_2" data-name="레이어 2" xmlns="http://www.w3.org/2000/svg" viewBox="0 0 132.09 145.22">
  <defs>
    <style>
      .cls-1 {
        fill: #c34d27;
      }
    </style>
  </defs>
  <g id="_레이어_1-2" data-name="레이어 1">
    <path class="cls-1" d="m119.27,112.72s-5.7-15.05-11.12-21.42c.29-19.27-.11-41.54-2.3-61.78V3.88s-15.21-4.47-24.75-1.19l-12.23.6L51.87,0,8.93,2.39,2.67,0S-1.5,21.77.58,37.87c0,0-.3,28.63,1.79,34.89,0,0-1.79,19.68,2.39,27.43,0,0,.89,25.94,2.68,34.89v7.16l34.29,2.98h14.31l22.07-3.28,27.73-1.19s.27-3.1.63-8.44c5.65,1,18.72,3.03,25.62,1.88l-12.82-21.47Zm-31.01-4.47l-6.56,2.68s-52.78.89-56.95-2.09l-2.98-82.9,35.78,1.49,11.93-1.49,7.45,1.49,8.35,1.49s4.47,56.95,2.98,79.32Z"/>
  </g>
</svg>